<svg width="57" height="57" viewBox="0 0 57 57" fill="none" xmlns="http://www.w3.org/2000/svg">
<path d="M27.7407 36.5513C26.6511 38.264 25.6056 39.9395 23.2629 41.5672C22.0098 42.4456 19.1255 44.1618 15.0257 44.1618C7.20393 44.1618 0.890625 38.4752 0.890625 28.4774C0.890625 19.7397 6.82942 12.8374 15.1925 12.8374C18.5807 12.8374 21.591 14.0087 23.8079 15.7658C25.8578 17.3967 26.8179 19.0281 27.6557 20.4923L21.8021 23.4172C21.3832 22.4569 20.8791 21.4524 19.5852 20.3662C18.162 19.2357 16.7419 18.902 15.5262 18.902C10.759 18.902 8.2493 23.3356 8.2493 28.2697C8.2493 34.7532 11.5557 37.9712 15.5262 37.9712C19.374 37.9712 20.9233 35.2946 21.9246 33.582L27.7407 36.5513ZM48.2467 13.7569H56.1094L45.8631 43.2833H38.3376L28.2174 13.7569H36.08L42.1856 34.7533L48.2467 13.7569Z" fill="#D9D9D9"/>
</svg>
