<svg width="16" height="16" viewBox="0 0 16 16" fill="none" xmlns="http://www.w3.org/2000/svg">
<path fill-rule="evenodd" clip-rule="evenodd" d="M8.00003 1.33325C8.87551 1.33325 9.74242 1.50568 10.5513 1.84071C11.3601 2.17574 12.095 2.6668 12.7141 3.28586C13.3331 3.90492 13.8242 4.63984 14.1592 5.44868C14.4943 6.25752 14.6667 7.12443 14.6667 7.99991C14.6667 11.6818 11.6819 14.6666 8.00003 14.6666C4.31816 14.6666 1.33337 11.6818 1.33337 7.99991C1.33337 4.31803 4.31816 1.33325 8.00003 1.33325ZM8.66672 8.6666H7.33337C5.68291 8.6666 4.26594 9.66619 3.65478 11.0931C4.62178 12.4491 6.20766 13.3333 8.00003 13.3333C9.79241 13.3333 11.3783 12.4491 12.3453 11.093C11.7342 9.66619 10.3172 8.6666 8.66672 8.6666ZM8.00003 3.33325C6.89547 3.33325 6.00003 4.22869 6.00003 5.33325C6.00003 6.43781 6.89547 7.33325 8.00003 7.33325C9.10459 7.33325 10 6.43781 10 5.33325C10 4.22869 9.10462 3.33325 8.00003 3.33325Z" fill="#133E23"/>
</svg>
