<svg width="64" height="63" viewBox="0 0 64 63" fill="none" xmlns="http://www.w3.org/2000/svg">
<path d="M31.9378 0.781738C27.7725 0.781738 23.6479 1.60216 19.7997 3.19616C15.9514 4.79016 12.4548 7.12652 9.50948 10.0719C3.56111 16.0202 0.21936 24.0879 0.21936 32.5002C0.21936 46.5197 9.32255 58.4141 21.9148 62.6327C23.5007 62.8864 24.0082 61.9032 24.0082 61.0468V55.6864C15.2222 57.5895 13.3508 51.4361 13.3508 51.4361C11.8917 47.7567 9.83005 46.7735 9.83005 46.7735C6.94367 44.8069 10.0521 44.8704 10.0521 44.8704C13.2239 45.0924 14.905 48.1374 14.905 48.1374C17.6645 52.9586 22.3271 51.5312 24.1351 50.77C24.4205 48.7083 25.2452 47.3127 26.1333 46.5197C19.0918 45.7268 11.7014 42.999 11.7014 30.9143C11.7014 27.3935 12.9067 24.5706 14.9684 22.3186C14.6513 21.5256 13.5411 18.2269 15.2856 13.9449C15.2856 13.9449 17.95 13.0885 24.0082 17.1802C26.5139 16.4824 29.2417 16.1335 31.9378 16.1335C34.6339 16.1335 37.3617 16.4824 39.8674 17.1802C45.9256 13.0885 48.59 13.9449 48.59 13.9449C50.3345 18.2269 49.2243 21.5256 48.9072 22.3186C50.9689 24.5706 52.1742 27.3935 52.1742 30.9143C52.1742 43.0307 44.7521 45.695 37.6788 46.488C38.8207 47.4713 39.8674 49.4061 39.8674 52.3559V61.0468C39.8674 61.9032 40.3749 62.9182 41.9925 62.6327C54.5848 58.3824 63.6562 46.5197 63.6562 32.5002C63.6562 28.3349 62.8358 24.2103 61.2418 20.3621C59.6478 16.5138 57.3115 13.0172 54.3661 10.0719C51.4208 7.12652 47.9242 4.79016 44.0759 3.19616C40.2277 1.60216 36.1031 0.781738 31.9378 0.781738Z" fill="#D9D9D9"/>
</svg>
