<svg width="58" height="59" viewBox="0 0 58 59" fill="none" xmlns="http://www.w3.org/2000/svg">
<path d="M51.265 0.953613C52.9475 0.953613 54.561 1.62196 55.7507 2.81164C56.9403 4.00131 57.6087 5.61485 57.6087 7.2973V51.7031C57.6087 53.3856 56.9403 54.9991 55.7507 56.1888C54.561 57.3785 52.9475 58.0468 51.265 58.0468H6.85919C5.17674 58.0468 3.5632 57.3785 2.37353 56.1888C1.18385 54.9991 0.515503 53.3856 0.515503 51.7031V7.2973C0.515503 5.61485 1.18385 4.00131 2.37353 2.81164C3.5632 1.62196 5.17674 0.953613 6.85919 0.953613H51.265ZM49.6791 50.1172V33.3064C49.6791 30.564 48.5897 27.934 46.6505 25.9948C44.7113 24.0556 42.0813 22.9662 39.3389 22.9662C36.6428 22.9662 33.5027 24.6156 31.9802 27.0896V23.5689H23.1308V50.1172H31.9802V34.48C31.9802 32.0377 33.9467 30.0394 36.3891 30.0394C37.5668 30.0394 38.6963 30.5073 39.529 31.34C40.3618 32.1728 40.8296 33.3023 40.8296 34.48V50.1172H49.6791ZM12.8223 18.5891C14.2355 18.5891 15.5909 18.0277 16.5902 17.0283C17.5895 16.029 18.151 14.6736 18.151 13.2604C18.151 10.3106 15.7721 7.89995 12.8223 7.89995C11.4006 7.89995 10.0371 8.46471 9.03187 9.46998C8.0266 10.4753 7.46184 11.8387 7.46184 13.2604C7.46184 16.2102 9.87244 18.5891 12.8223 18.5891ZM17.2311 50.1172V23.5689H8.44511V50.1172H17.2311Z" fill="#D9D9D9"/>
</svg>
